<?xml version="1.0" standalone="no"?>
<!DOCTYPE svg PUBLIC "-//W3C//DTD SVG 20010904//EN" "http://www.w3.org/TR/2001/REC-SVG-20010904/DTD/svg10.dtd">
<svg version="1.0" xmlns="http://www.w3.org/2000/svg" width="1180.000000pt" height="395.000000pt"
  viewBox="0 0 1180.000000 395.000000" preserveAspectRatio="xMidYMid meet">

  <g transform="translate(0.000000,395.000000) scale(0.100000,-0.100000)" fill="currentColor" stroke="none">
    <path d="M1663 3915 c-296 -58 -534 -185 -734 -392 -193 -200 -305 -430 -338
-693 -6 -46 -11 -86 -11 -87 0 -2 -128 -3 -285 -3 l-285 0 2 -297 3 -298 282
-3 283 -2 0 -519 c0 -305 -4 -540 -10 -572 -15 -82 -63 -169 -136 -248 -83
-89 -205 -154 -324 -172 -41 -6 -81 -13 -88 -15 -9 -3 -12 -71 -12 -300 l0
-297 93 6 c513 34 962 398 1082 875 29 117 35 235 35 734 l0 508 549 0 c540 0
550 0 606 -22 71 -27 138 -91 172 -164 21 -46 25 -67 21 -122 -7 -121 -78
-216 -197 -264 -55 -22 -65 -23 -422 -24 -202 -1 -371 -4 -375 -7 -5 -3 -9
-135 -9 -294 l0 -288 435 0 435 1 90 27 c50 16 118 41 152 57 190 88 368 267
454 456 115 254 92 575 -60 806 -131 201 -312 333 -552 405 l-94 28 -600 5
-600 5 3 35 c13 177 168 387 355 479 144 71 165 74 595 78 l382 4 0 300 0 299
-387 -1 c-365 -1 -395 -2 -510 -24z" />
    <path d="M9942 2757 c-28 -29 -29 -86 -3 -118 44 -54 141 -13 141 61 0 72 -89
109 -138 57z" />
    <path d="M9555 2748 c-3 -7 -6 -65 -7 -128 l-3 -115 -58 -3 -58 -3 3 -47 3
-47 45 -1 c25 -1 51 -2 58 -2 9 -2 12 -69 12 -302 l0 -300 55 0 55 0 0 300 0
300 70 0 70 0 0 56 0 57 -56 -6 c-86 -9 -84 -12 -84 129 l0 124 -50 0 c-31 0
-52 -5 -55 -12z" />
    <path d="M4300 2268 l0 -471 218 6 c276 8 347 26 436 113 93 90 136 202 136
350 0 246 -140 420 -374 465 -27 5 -131 9 -232 9 l-184 0 0 -472z m480 315
c128 -60 191 -166 191 -323 0 -130 -41 -218 -131 -279 -67 -46 -98 -52 -272
-58 l-158 -6 0 353 0 352 153 -4 c144 -4 155 -6 217 -35z" />
    <path d="M6532 2273 l3 -468 58 -3 57 -3 0 226 0 225 185 0 186 0 -3 58 -3 57
-182 3 -183 2 0 125 0 125 183 2 182 3 3 58 3 57 -246 0 -245 0 2 -467z" />
    <path d="M5423 2486 c-29 -20 -55 -36 -57 -36 -3 0 -6 11 -8 25 -2 14 -6 25
-10 25 -5 0 -28 0 -53 0 l-45 0 0 -350 0 -350 54 0 54 0 4 223 c4 200 7 228
27 280 29 74 81 113 139 104 36 -6 39 -5 64 38 24 38 25 45 12 56 -9 7 -41 15
-72 17 -52 4 -61 1 -109 -32z" />
    <path d="M7388 2496 c-88 -36 -149 -94 -201 -191 -19 -34 -22 -56 -22 -150 0
-101 3 -114 28 -164 36 -68 108 -140 171 -171 59 -28 173 -38 243 -21 26 7 72
28 100 47 29 18 55 34 57 34 3 0 6 -17 8 -37 l3 -38 55 0 55 0 3 348 c3 390 8
365 -73 353 -43 -7 -44 -8 -47 -47 l-3 -41 -45 36 c-61 48 -118 66 -204 66
-51 0 -87 -7 -128 -24z m251 -112 c159 -79 188 -307 55 -424 -52 -45 -99 -62
-172 -62 -82 -1 -144 31 -194 97 -67 89 -74 195 -18 292 66 115 208 157 329
97z" />
    <path d="M9005 2503 c-69 -36 -107 -98 -107 -174 1 -91 49 -149 184 -221 77
-41 100 -67 100 -114 0 -30 -7 -44 -31 -66 -46 -42 -103 -39 -172 8 l-54 36
-27 -33 c-35 -41 -35 -49 0 -82 87 -83 249 -90 330 -14 86 80 85 231 -1 303
-16 14 -65 45 -108 70 -119 69 -146 118 -94 169 38 39 101 35 158 -9 l45 -34
36 37 37 38 -37 33 c-21 18 -56 41 -78 51 -51 23 -140 24 -181 2z" />
    <path d="M10491 2495 c-29 -14 -67 -37 -85 -52 l-31 -26 -3 47 -3 47 -52 -3
-52 -3 -3 -352 -2 -353 53 0 54 0 5 215 c5 214 5 216 34 273 22 42 43 66 79
90 47 32 54 34 122 30 77 -4 101 -16 132 -73 13 -25 17 -73 21 -280 l5 -250
58 -3 57 -3 0 195 c0 202 -11 322 -35 380 -54 128 -217 184 -354 121z" />
    <path d="M11281 2498 c-67 -28 -150 -107 -185 -175 -75 -149 -42 -329 82 -445
68 -64 125 -83 247 -83 87 0 106 3 149 25 77 39 132 94 168 168 31 62 33 74
33 167 0 88 -3 107 -27 157 -33 70 -106 145 -173 178 -74 35 -219 39 -294 8z
m210 -98 c54 -15 128 -85 156 -147 74 -168 -46 -353 -228 -353 -137 0 -237 94
-247 231 -14 182 146 317 319 269z" />
    <path d="M8100 2495 c-21 -26 -7 -442 17 -516 25 -74 62 -120 125 -154 44 -24
68 -30 139 -33 138 -7 227 35 283 131 37 63 46 139 46 374 l0 213 -42 0 c-24
0 -48 -4 -54 -8 -8 -5 -13 -79 -16 -237 -4 -214 -5 -233 -26 -272 -66 -127
-271 -125 -341 2 -13 25 -17 73 -21 270 l-5 240 -46 3 c-32 2 -50 -2 -59 -13z" />
    <path d="M9945 2497 c-3 -6 -4 -165 -3 -352 l3 -340 49 -3 c27 -2 52 1 55 6 3
6 5 166 3 356 l-3 346 -50 0 c-31 0 -51 -5 -54 -13z" />
    <path d="M5795 1960 c-62 -25 -80 -105 -31 -146 69 -60 164 1 142 91 -10 40
-72 71 -111 55z" />
    <path d="M6577 1293 c-4 -3 -7 -91 -7 -195 0 -103 -4 -188 -9 -188 -5 0 -14 7
-21 16 -71 85 -281 105 -395 38 -57 -33 -131 -114 -158 -172 -31 -67 -31 -235
1 -305 32 -71 111 -149 185 -183 114 -52 252 -36 353 41 18 14 35 25 38 25 3
0 6 -18 6 -40 l0 -40 55 0 55 0 0 505 0 505 -48 0 c-27 0 -52 -3 -55 -7z
m-180 -408 c63 -19 135 -81 158 -137 11 -27 18 -70 18 -114 0 -61 -4 -79 -30
-125 -54 -96 -167 -145 -279 -120 -104 24 -194 140 -194 251 0 103 74 207 172
241 65 23 90 23 155 4z" />
    <path d="M7387 1268 c-66 -91 -127 -178 -127 -183 0 -3 24 -5 53 -5 l52 0 103
103 c56 56 102 106 102 110 0 4 -36 7 -79 7 -79 0 -80 -1 -104 -32z" />
    <path d="M4310 1213 c0 -4 -1 -215 -2 -468 l-3 -460 58 -3 57 -3 0 211 c0 193
1 210 18 210 10 0 80 -80 181 -210 l164 -210 69 0 c39 0 68 4 66 9 -1 5 -72
98 -156 206 -84 108 -150 201 -147 206 4 5 21 9 39 9 48 0 117 26 159 61 109
90 115 268 14 367 -67 66 -103 75 -324 80 -106 2 -193 0 -193 -5z m401 -136
c47 -31 71 -82 64 -132 -14 -94 -54 -116 -227 -123 l-128 -5 0 142 0 141 129
0 c116 0 131 -2 162 -23z" />
    <path d="M5347 990 c-175 -44 -303 -244 -268 -417 25 -127 98 -223 209 -275
60 -29 68 -30 165 -26 85 3 110 8 152 30 63 33 125 97 161 168 27 50 29 64 29
160 0 96 -3 110 -29 163 -62 124 -169 196 -303 203 -43 2 -95 -1 -116 -6z
m190 -126 c26 -10 58 -33 82 -61 95 -107 93 -258 -6 -357 -52 -52 -107 -70
-197 -64 -65 4 -80 9 -123 40 -124 89 -138 273 -30 386 74 78 163 95 274 56z" />
    <path d="M7080 989 c-13 -5 -39 -21 -57 -34 -40 -31 -41 -31 -45 3 -3 23 -8
28 -37 30 -19 2 -44 1 -58 -2 l-23 -6 2 -348 3 -347 57 -3 56 -3 4 233 c3 226
4 235 28 282 35 68 69 92 128 89 46 -2 48 -1 70 39 20 37 21 44 8 56 -18 18
-103 25 -136 11z" />
    <path d="M7869 987 c-143 -41 -250 -166 -265 -313 -18 -171 79 -319 243 -373
105 -35 209 -22 306 39 28 17 54 27 59 22 12 -12 -9 -113 -31 -142 -10 -14
-37 -38 -59 -54 -37 -26 -52 -30 -130 -34 -122 -6 -163 7 -228 74 -49 50 -57
54 -99 54 -60 0 -65 -17 -25 -80 68 -106 156 -151 306 -158 183 -8 299 57 357
200 20 50 22 73 25 411 l4 358 -54 -3 c-53 -3 -53 -3 -56 -38 -5 -49 -15 -55
-48 -27 -79 66 -204 92 -305 64z m219 -126 c117 -60 166 -213 108 -336 -25
-54 -39 -68 -101 -106 -56 -33 -190 -34 -250 -2 -85 46 -127 118 -127 220 -1
150 122 261 275 248 31 -3 74 -13 95 -24z" />
    <path d="M9590 987 c-168 -47 -287 -247 -252 -421 42 -208 207 -325 417 -295
108 15 198 75 252 167 l26 44 -24 19 c-34 27 -69 35 -79 18 -57 -97 -133 -142
-238 -142 -80 1 -115 13 -161 56 -37 35 -81 119 -81 155 l0 22 301 0 302 0 -6
69 c-10 121 -77 222 -188 281 -51 27 -74 33 -143 36 -48 2 -100 -1 -126 -9z
m214 -124 c41 -20 84 -61 103 -96 28 -56 23 -57 -206 -57 -115 0 -216 3 -225
6 -14 5 -14 9 0 37 31 61 84 106 154 128 35 11 137 1 174 -18z" />
    <path d="M7325 983 c-12 -9 -20 -602 -10 -664 l7 -39 54 0 54 0 -2 353 -3 352
-45 3 c-25 1 -49 -1 -55 -5z" />
    <path d="M8542 981 c-11 -7 -13 -55 -10 -247 4 -217 6 -244 26 -294 26 -67 79
-121 146 -151 63 -27 200 -30 260 -5 84 35 147 108 167 194 6 28 13 362 9 500
0 7 -15 12 -39 12 -75 0 -71 12 -71 -224 -1 -251 -6 -286 -51 -332 -42 -43
-85 -57 -164 -52 -48 3 -70 10 -97 30 -66 50 -72 75 -78 338 l-5 235 -40 3
c-22 1 -46 -2 -53 -7z" />
    <path d="M10197 983 c-4 -3 -7 -28 -7 -55 l0 -48 160 0 c88 0 160 -4 160 -8 0
-5 -81 -136 -180 -291 -99 -156 -180 -287 -180 -292 0 -6 111 -8 273 -7 l272
3 0 50 0 50 -177 3 -177 2 43 68 c23 37 106 167 184 288 78 122 142 227 142
233 0 12 -501 17 -513 4z" />
    <path d="M1569 616 c-9 -9 -2 -587 7 -596 7 -7 307 -9 820 -8 l809 3 0 275 c0
151 -2 287 -4 303 l-3 27 -812 0 c-447 0 -815 -2 -817 -4z" />
  </g>
</svg>